<svg xmlns="http://www.w3.org/2000/svg" viewBox="0 0 64 64" id="xbox-wireless-game-control">
  <g>
    <path fill="#e4e9f6" fill-rule="evenodd" d="M62.89 42.25c-1.41-21.64-7.82-28.84-7.82-28.84-3.72-5.21-8.19-3.1-12.51-1.27S32 13.88 32 13.88s-6.24.1-10.56-1.74-8.72-3.9-12.51 1.27c0 0-6.41 7.2-7.82 28.84s11.08 6.87 13.8 4.52 5.54-5.18 17.09-5.18 14.36 2.83 17.09 5.18 15.21 17.12 13.8-4.52Z"></path>
    <path fill="#e17b3c" fill-rule="evenodd" d="M52.63 21.06a2.16 2.16 0 1 0 2.16 2.16 2.16 2.16 0 0 0-2.16-2.16Z"></path>
    <path fill="#be3f27" fill-rule="evenodd" d="M48.67 25a2.16 2.16 0 1 0 2.15 2.16A2.16 2.16 0 0 0 48.67 25Z"></path>
    <path fill="#43b39c" fill-rule="evenodd" d="M44.7 21.06a2.16 2.16 0 1 0 2.15 2.16 2.16 2.16 0 0 0-2.15-2.16Z"></path>
    <path fill="#5c5d6e" fill-rule="evenodd" d="M37.19 23.81a1.6 1.6 0 1 0 1.59 1.6 1.6 1.6 0 0 0-1.59-1.6Z"></path>
    <rect width="1.04" height="1.04" x="35.41" y="31.98" fill="#717487" rx=".22" ry=".22"></rect>
    <path fill="#717487" fill-rule="evenodd" d="M31.9 17.93h-.45c-.11 0-.11 0-.11.1V20c0 .06 0 .08.08.08h.48L32 20v-2c0-.06 0-.08-.1-.07Zm5.24-1.11h-.36c-.12 0-.11 0-.11.12v1.14a.71.71 0 0 1-.36.63.9.9 0 0 1-.66.11.69.69 0 0 1-.51-.29A.81.81 0 0 1 35 18v-1.1c0-.06 0-.09-.09-.09h-.31a.39.39 0 0 0-.41.43v1.52a.47.47 0 0 0 .4.46.93.93 0 0 0 .24 0h2.08a.5.5 0 0 0 .52-.51v-1.54a.35.35 0 0 0-.29-.35Zm-1.73 1.25a.41.41 0 0 0 .57.3.44.44 0 0 0 .25-.4V16.8h-.72s-.05 0-.06.05a.14.14 0 0 0 0 .09v.77c0 .25-.05.29-.04.36ZM30.89 17h-.5c-.1 0-.1 0-.12.1-.18.68-.35 1.37-.53 2.06v.08a.23.23 0 0 1-.05-.07c-.1-.41-.21-.82-.32-1.23-.06-.23-.11-.47-.19-.7a.42.42 0 0 0-.56-.24.44.44 0 0 0-.26.34l-.48 1.82v.08-.1c-.17-.69-.35-1.37-.52-2.06 0-.06 0-.08-.1-.08h-.47c-.12 0-.12 0-.09.11.23.83.47 1.67.7 2.51a.77.77 0 0 0 .14.27.44.44 0 0 0 .75 0 1.6 1.6 0 0 0 .1-.23l.33-1.66v-.08.1l.42 1.5a1.17 1.17 0 0 0 .14.35.44.44 0 0 0 .69.07.76.76 0 0 0 .18-.33l.42-1.49c.1-.35.19-.71.29-1.06.14-.06.08-.06.03-.06Zm2.11-.2a.36.36 0 1 0 .38.36.37.37 0 0 0-.38-.36Zm-1.33 0a.37.37 0 0 0-.39.35.38.38 0 0 0 .38.37.36.36 0 1 0 0-.72Zm1.58 1.13h-.49s-.07 0-.07.07v2c0 .06 0 .08.08.08h.47c.07 0 .09 0 .09-.09V18s-.02-.07-.08-.07Z"></path>
    <rect width="1.04" height="1.04" x="32.84" y="31.98" fill="#717487" rx=".22" ry=".22"></rect>
    <rect width="1.04" height="1.04" x="30.12" y="31.98" fill="#717487" rx=".22" ry=".22"></rect>
    <rect width="1.04" height="1.04" x="27.55" y="31.98" fill="#717487" rx=".22" ry=".22"></rect>
    <path fill="#5c5d6e" fill-rule="evenodd" d="M26.81 23.81a1.6 1.6 0 1 0 1.6 1.6 1.6 1.6 0 0 0-1.6-1.6Z"></path>
    <path fill="#be3f27" fill-rule="evenodd" d="M24.87 34h-2.11v-2.1a.69.69 0 0 0-.69-.7h-1.41a.69.69 0 0 0-.69.7V34h-2.11a.7.7 0 0 0-.69.7v1.41a.7.7 0 0 0 .69.7H20v2.11a.69.69 0 0 0 .69.69h1.41a.69.69 0 0 0 .69-.69v-2.16h2.11a.71.71 0 0 0 .7-.7v-1.41a.71.71 0 0 0-.73-.65Z"></path>
    <path fill="#d8deec" fill-rule="evenodd" d="M14.63 18.34A4.66 4.66 0 1 0 19.28 23a4.66 4.66 0 0 0-4.65-4.66Z"></path>
    <path fill="#5c5d6e" fill-rule="evenodd" d="M14.63 19.61A3.39 3.39 0 1 0 18 23a3.38 3.38 0 0 0-3.37-3.39Z"></path>
    <path fill="#d8deec" fill-rule="evenodd" d="M42.81 31.53a4.28 4.28 0 1 0 4.26 4.27 4.27 4.27 0 0 0-4.26-4.27Z"></path>
    <path fill="#5c5d6e" fill-rule="evenodd" d="M42.81 32.87a2.94 2.94 0 1 0 2.93 2.93 2.94 2.94 0 0 0-2.93-2.93Z"></path>
    <path fill="#238ab3" fill-rule="evenodd" d="M48.67 17.08a2.16 2.16 0 1 0 2.15 2.16 2.16 2.16 0 0 0-2.15-2.16Z"></path>
  </g>
</svg>
